<?xml version="1.0" encoding="utf-8"?>
<!DOCTYPE svg PUBLIC "-//W3C//DTD SVG 1.1//EN" "http://www.w3.org/Graphics/SVG/1.1/DTD/svg11.dtd">
<svg class="marks" width="245" height="260" viewBox="0 0 245 260" version="1.1" xmlns="http://www.w3.org/2000/svg" xmlns:xlink="http://www.w3.org/1999/xlink"><g transform="translate(35,23)"><g class="mark-group role-frame root"><g transform="translate(0,0)"><path class="background" d="M0.5,0.5h200v200h-200Z" style="fill: none; stroke: #ddd;"></path><g><g class="mark-group role-axis"><g transform="translate(0.5,200.5)"><path class="background" d="M0,0h0v0h0Z" style="pointer-events: none; fill: none;"></path><g><g class="mark-rule role-axis-grid" style="pointer-events: none;"><line transform="translate(0,-200)" x2="0" y2="200" style="fill: none; stroke: #ddd; stroke-width: 1; opacity: 1;"></line><line transform="translate(38,-200)" x2="0" y2="200" style="fill: none; stroke: #ddd; stroke-width: 1; opacity: 1;"></line><line transform="translate(77,-200)" x2="0" y2="200" style="fill: none; stroke: #ddd; stroke-width: 1; opacity: 1;"></line><line transform="translate(115,-200)" x2="0" y2="200" style="fill: none; stroke: #ddd; stroke-width: 1; opacity: 1;"></line><line transform="translate(154,-200)" x2="0" y2="200" style="fill: none; stroke: #ddd; stroke-width: 1; opacity: 1;"></line><line transform="translate(192,-200)" x2="0" y2="200" style="fill: none; stroke: #ddd; stroke-width: 1; opacity: 1;"></line></g></g></g></g><g class="mark-group role-axis"><g transform="translate(0.5,0.5)"><path class="background" d="M0,0h0v0h0Z" style="pointer-events: none; fill: none;"></path><g><g class="mark-rule role-axis-grid" style="pointer-events: none;"><line transform="translate(0,200)" x2="200" y2="0" style="fill: none; stroke: #ddd; stroke-width: 1; opacity: 1;"></line><line transform="translate(0,140)" x2="200" y2="0" style="fill: none; stroke: #ddd; stroke-width: 1; opacity: 1;"></line><line transform="translate(0,105)" x2="200" y2="0" style="fill: none; stroke: #ddd; stroke-width: 1; opacity: 1;"></line><line transform="translate(0,80)" x2="200" y2="0" style="fill: none; stroke: #ddd; stroke-width: 1; opacity: 1;"></line><line transform="translate(0,60)" x2="200" y2="0" style="fill: none; stroke: #ddd; stroke-width: 1; opacity: 1;"></line><line transform="translate(0,44)" x2="200" y2="0" style="fill: none; stroke: #ddd; stroke-width: 1; opacity: 1;"></line><line transform="translate(0,31)" x2="200" y2="0" style="fill: none; stroke: #ddd; stroke-width: 1; opacity: 1;"></line><line transform="translate(0,19)" x2="200" y2="0" style="fill: none; stroke: #ddd; stroke-width: 1; opacity: 1;"></line><line transform="translate(0,9)" x2="200" y2="0" style="fill: none; stroke: #ddd; stroke-width: 1; opacity: 1;"></line><line transform="translate(0,0)" x2="200" y2="0" style="fill: none; stroke: #ddd; stroke-width: 1; opacity: 1;"></line></g></g></g></g><g class="mark-symbol role-mark layer_0_marks"><path transform="translate(15.384615384615385,170.7743928643524)" d="M2.7386127875258306,0A2.7386127875258306,2.7386127875258306,0,1,1,-2.7386127875258306,0A2.7386127875258306,2.7386127875258306,0,1,1,2.7386127875258306,0" style="fill: none; stroke: red; stroke-width: 2; opacity: 0.7;"></path><path transform="translate(15.384615384615385,170.7743928643524)" d="M2.7386127875258306,0A2.7386127875258306,2.7386127875258306,0,1,1,-2.7386127875258306,0A2.7386127875258306,2.7386127875258306,0,1,1,2.7386127875258306,0" style="fill: none; stroke: red; stroke-width: 2; opacity: 0.7;"></path><path transform="translate(15.384615384615385,177.21132953863264)" d="M2.7386127875258306,0A2.7386127875258306,2.7386127875258306,0,1,1,-2.7386127875258306,0A2.7386127875258306,2.7386127875258306,0,1,1,2.7386127875258306,0" style="fill: none; stroke: red; stroke-width: 2; opacity: 0.7;"></path><path transform="translate(15.384615384615385,164.78174818886376)" d="M2.7386127875258306,0A2.7386127875258306,2.7386127875258306,0,1,1,-2.7386127875258306,0A2.7386127875258306,2.7386127875258306,0,1,1,2.7386127875258306,0" style="fill: none; stroke: red; stroke-width: 2; opacity: 0.7;"></path><path transform="translate(15.384615384615385,170.7743928643524)" d="M2.7386127875258306,0A2.7386127875258306,2.7386127875258306,0,1,1,-2.7386127875258306,0A2.7386127875258306,2.7386127875258306,0,1,1,2.7386127875258306,0" style="fill: none; stroke: red; stroke-width: 2; opacity: 0.7;"></path><path transform="translate(30.76923076923077,153.91021572434522)" d="M2.7386127875258306,0A2.7386127875258306,2.7386127875258306,0,1,1,-2.7386127875258306,0A2.7386127875258306,2.7386127875258306,0,1,1,2.7386127875258306,0" style="fill: none; stroke: red; stroke-width: 2; opacity: 0.7;"></path><path transform="translate(23.076923076923077,170.7743928643524)" d="M2.7386127875258306,0A2.7386127875258306,2.7386127875258306,0,1,1,-2.7386127875258306,0A2.7386127875258306,2.7386127875258306,0,1,1,2.7386127875258306,0" style="fill: none; stroke: red; stroke-width: 2; opacity: 0.7;"></path><path transform="translate(15.384615384615385,164.78174818886376)" d="M2.7386127875258306,0A2.7386127875258306,2.7386127875258306,0,1,1,-2.7386127875258306,0A2.7386127875258306,2.7386127875258306,0,1,1,2.7386127875258306,0" style="fill: none; stroke: red; stroke-width: 2; opacity: 0.7;"></path><path transform="translate(15.384615384615385,170.7743928643524)" d="M2.7386127875258306,0A2.7386127875258306,2.7386127875258306,0,1,1,-2.7386127875258306,0A2.7386127875258306,2.7386127875258306,0,1,1,2.7386127875258306,0" style="fill: none; stroke: red; stroke-width: 2; opacity: 0.7;"></path><path transform="translate(7.6923076923076925,164.78174818886376)" d="M2.7386127875258306,0A2.7386127875258306,2.7386127875258306,0,1,1,-2.7386127875258306,0A2.7386127875258306,2.7386127875258306,0,1,1,2.7386127875258306,0" style="fill: none; stroke: red; stroke-width: 2; opacity: 0.7;"></path><path transform="translate(15.384615384615385,164.78174818886376)" d="M2.7386127875258306,0A2.7386127875258306,2.7386127875258306,0,1,1,-2.7386127875258306,0A2.7386127875258306,2.7386127875258306,0,1,1,2.7386127875258306,0" style="fill: none; stroke: red; stroke-width: 2; opacity: 0.7;"></path><path transform="translate(15.384615384615385,159.17600346881505)" d="M2.7386127875258306,0A2.7386127875258306,2.7386127875258306,0,1,1,-2.7386127875258306,0A2.7386127875258306,2.7386127875258306,0,1,1,2.7386127875258306,0" style="fill: none; stroke: red; stroke-width: 2; opacity: 0.7;"></path><path transform="translate(7.6923076923076925,170.7743928643524)" d="M2.7386127875258306,0A2.7386127875258306,2.7386127875258306,0,1,1,-2.7386127875258306,0A2.7386127875258306,2.7386127875258306,0,1,1,2.7386127875258306,0" style="fill: none; stroke: red; stroke-width: 2; opacity: 0.7;"></path><path transform="translate(7.6923076923076925,191.72146296835498)" d="M2.7386127875258306,0A2.7386127875258306,2.7386127875258306,0,1,1,-2.7386127875258306,0A2.7386127875258306,2.7386127875258306,0,1,1,2.7386127875258306,0" style="fill: none; stroke: red; stroke-width: 2; opacity: 0.7;"></path><path transform="translate(15.384615384615385,184.16375079047504)" d="M2.7386127875258306,0A2.7386127875258306,2.7386127875258306,0,1,1,-2.7386127875258306,0A2.7386127875258306,2.7386127875258306,0,1,1,2.7386127875258306,0" style="fill: none; stroke: red; stroke-width: 2; opacity: 0.7;"></path><path transform="translate(30.76923076923077,164.78174818886376)" d="M2.7386127875258306,0A2.7386127875258306,2.7386127875258306,0,1,1,-2.7386127875258306,0A2.7386127875258306,2.7386127875258306,0,1,1,2.7386127875258306,0" style="fill: none; stroke: red; stroke-width: 2; opacity: 0.7;"></path><path transform="translate(30.76923076923077,177.21132953863264)" d="M2.7386127875258306,0A2.7386127875258306,2.7386127875258306,0,1,1,-2.7386127875258306,0A2.7386127875258306,2.7386127875258306,0,1,1,2.7386127875258306,0" style="fill: none; stroke: red; stroke-width: 2; opacity: 0.7;"></path><path transform="translate(23.076923076923077,170.7743928643524)" d="M2.7386127875258306,0A2.7386127875258306,2.7386127875258306,0,1,1,-2.7386127875258306,0A2.7386127875258306,2.7386127875258306,0,1,1,2.7386127875258306,0" style="fill: none; stroke: red; stroke-width: 2; opacity: 0.7;"></path><path transform="translate(23.076923076923077,153.91021572434522)" d="M2.7386127875258306,0A2.7386127875258306,2.7386127875258306,0,1,1,-2.7386127875258306,0A2.7386127875258306,2.7386127875258306,0,1,1,2.7386127875258306,0" style="fill: none; stroke: red; stroke-width: 2; opacity: 0.7;"></path><path transform="translate(23.076923076923077,164.78174818886376)" d="M2.7386127875258306,0A2.7386127875258306,2.7386127875258306,0,1,1,-2.7386127875258306,0A2.7386127875258306,2.7386127875258306,0,1,1,2.7386127875258306,0" style="fill: none; stroke: red; stroke-width: 2; opacity: 0.7;"></path><path transform="translate(15.384615384615385,153.91021572434522)" d="M2.7386127875258306,0A2.7386127875258306,2.7386127875258306,0,1,1,-2.7386127875258306,0A2.7386127875258306,2.7386127875258306,0,1,1,2.7386127875258306,0" style="fill: none; stroke: red; stroke-width: 2; opacity: 0.7;"></path><path transform="translate(30.76923076923077,164.78174818886376)" d="M2.7386127875258306,0A2.7386127875258306,2.7386127875258306,0,1,1,-2.7386127875258306,0A2.7386127875258306,2.7386127875258306,0,1,1,2.7386127875258306,0" style="fill: none; stroke: red; stroke-width: 2; opacity: 0.7;"></path><path transform="translate(15.384615384615385,200)" d="M2.7386127875258306,0A2.7386127875258306,2.7386127875258306,0,1,1,-2.7386127875258306,0A2.7386127875258306,2.7386127875258306,0,1,1,2.7386127875258306,0" style="fill: none; stroke: red; stroke-width: 2; opacity: 0.7;"></path><path transform="translate(38.46153846153846,153.91021572434522)" d="M2.7386127875258306,0A2.7386127875258306,2.7386127875258306,0,1,1,-2.7386127875258306,0A2.7386127875258306,2.7386127875258306,0,1,1,2.7386127875258306,0" style="fill: none; stroke: red; stroke-width: 2; opacity: 0.7;"></path><path transform="translate(15.384615384615385,144.2492798094342)" d="M2.7386127875258306,0A2.7386127875258306,2.7386127875258306,0,1,1,-2.7386127875258306,0A2.7386127875258306,2.7386127875258306,0,1,1,2.7386127875258306,0" style="fill: none; stroke: red; stroke-width: 2; opacity: 0.7;"></path><path transform="translate(15.384615384615385,159.17600346881505)" d="M2.7386127875258306,0A2.7386127875258306,2.7386127875258306,0,1,1,-2.7386127875258306,0A2.7386127875258306,2.7386127875258306,0,1,1,2.7386127875258306,0" style="fill: none; stroke: red; stroke-width: 2; opacity: 0.7;"></path><path transform="translate(30.76923076923077,159.17600346881505)" d="M2.7386127875258306,0A2.7386127875258306,2.7386127875258306,0,1,1,-2.7386127875258306,0A2.7386127875258306,2.7386127875258306,0,1,1,2.7386127875258306,0" style="fill: none; stroke: red; stroke-width: 2; opacity: 0.7;"></path><path transform="translate(15.384615384615385,164.78174818886376)" d="M2.7386127875258306,0A2.7386127875258306,2.7386127875258306,0,1,1,-2.7386127875258306,0A2.7386127875258306,2.7386127875258306,0,1,1,2.7386127875258306,0" style="fill: none; stroke: red; stroke-width: 2; opacity: 0.7;"></path><path transform="translate(15.384615384615385,170.7743928643524)" d="M2.7386127875258306,0A2.7386127875258306,2.7386127875258306,0,1,1,-2.7386127875258306,0A2.7386127875258306,2.7386127875258306,0,1,1,2.7386127875258306,0" style="fill: none; stroke: red; stroke-width: 2; opacity: 0.7;"></path><path transform="translate(15.384615384615385,159.17600346881505)" d="M2.7386127875258306,0A2.7386127875258306,2.7386127875258306,0,1,1,-2.7386127875258306,0A2.7386127875258306,2.7386127875258306,0,1,1,2.7386127875258306,0" style="fill: none; stroke: red; stroke-width: 2; opacity: 0.7;"></path><path transform="translate(15.384615384615385,159.17600346881505)" d="M2.7386127875258306,0A2.7386127875258306,2.7386127875258306,0,1,1,-2.7386127875258306,0A2.7386127875258306,2.7386127875258306,0,1,1,2.7386127875258306,0" style="fill: none; stroke: red; stroke-width: 2; opacity: 0.7;"></path><path transform="translate(30.76923076923077,164.78174818886376)" d="M2.7386127875258306,0A2.7386127875258306,2.7386127875258306,0,1,1,-2.7386127875258306,0A2.7386127875258306,2.7386127875258306,0,1,1,2.7386127875258306,0" style="fill: none; stroke: red; stroke-width: 2; opacity: 0.7;"></path><path transform="translate(7.6923076923076925,164.78174818886376)" d="M2.7386127875258306,0A2.7386127875258306,2.7386127875258306,0,1,1,-2.7386127875258306,0A2.7386127875258306,2.7386127875258306,0,1,1,2.7386127875258306,0" style="fill: none; stroke: red; stroke-width: 2; opacity: 0.7;"></path><path transform="translate(15.384615384615385,170.7743928643524)" d="M2.7386127875258306,0A2.7386127875258306,2.7386127875258306,0,1,1,-2.7386127875258306,0A2.7386127875258306,2.7386127875258306,0,1,1,2.7386127875258306,0" style="fill: none; stroke: red; stroke-width: 2; opacity: 0.7;"></path><path transform="translate(15.384615384615385,164.78174818886376)" d="M2.7386127875258306,0A2.7386127875258306,2.7386127875258306,0,1,1,-2.7386127875258306,0A2.7386127875258306,2.7386127875258306,0,1,1,2.7386127875258306,0" style="fill: none; stroke: red; stroke-width: 2; opacity: 0.7;"></path><path transform="translate(15.384615384615385,184.16375079047504)" d="M2.7386127875258306,0A2.7386127875258306,2.7386127875258306,0,1,1,-2.7386127875258306,0A2.7386127875258306,2.7386127875258306,0,1,1,2.7386127875258306,0" style="fill: none; stroke: red; stroke-width: 2; opacity: 0.7;"></path><path transform="translate(15.384615384615385,177.21132953863264)" d="M2.7386127875258306,0A2.7386127875258306,2.7386127875258306,0,1,1,-2.7386127875258306,0A2.7386127875258306,2.7386127875258306,0,1,1,2.7386127875258306,0" style="fill: none; stroke: red; stroke-width: 2; opacity: 0.7;"></path><path transform="translate(7.6923076923076925,170.7743928643524)" d="M2.7386127875258306,0A2.7386127875258306,2.7386127875258306,0,1,1,-2.7386127875258306,0A2.7386127875258306,2.7386127875258306,0,1,1,2.7386127875258306,0" style="fill: none; stroke: red; stroke-width: 2; opacity: 0.7;"></path><path transform="translate(15.384615384615385,177.21132953863264)" d="M2.7386127875258306,0A2.7386127875258306,2.7386127875258306,0,1,1,-2.7386127875258306,0A2.7386127875258306,2.7386127875258306,0,1,1,2.7386127875258306,0" style="fill: none; stroke: red; stroke-width: 2; opacity: 0.7;"></path><path transform="translate(15.384615384615385,164.78174818886376)" d="M2.7386127875258306,0A2.7386127875258306,2.7386127875258306,0,1,1,-2.7386127875258306,0A2.7386127875258306,2.7386127875258306,0,1,1,2.7386127875258306,0" style="fill: none; stroke: red; stroke-width: 2; opacity: 0.7;"></path><path transform="translate(23.076923076923077,177.21132953863264)" d="M2.7386127875258306,0A2.7386127875258306,2.7386127875258306,0,1,1,-2.7386127875258306,0A2.7386127875258306,2.7386127875258306,0,1,1,2.7386127875258306,0" style="fill: none; stroke: red; stroke-width: 2; opacity: 0.7;"></path><path transform="translate(23.076923076923077,177.21132953863264)" d="M2.7386127875258306,0A2.7386127875258306,2.7386127875258306,0,1,1,-2.7386127875258306,0A2.7386127875258306,2.7386127875258306,0,1,1,2.7386127875258306,0" style="fill: none; stroke: red; stroke-width: 2; opacity: 0.7;"></path><path transform="translate(15.384615384615385,177.21132953863264)" d="M2.7386127875258306,0A2.7386127875258306,2.7386127875258306,0,1,1,-2.7386127875258306,0A2.7386127875258306,2.7386127875258306,0,1,1,2.7386127875258306,0" style="fill: none; stroke: red; stroke-width: 2; opacity: 0.7;"></path><path transform="translate(46.15384615384615,159.17600346881505)" d="M2.7386127875258306,0A2.7386127875258306,2.7386127875258306,0,1,1,-2.7386127875258306,0A2.7386127875258306,2.7386127875258306,0,1,1,2.7386127875258306,0" style="fill: none; stroke: red; stroke-width: 2; opacity: 0.7;"></path><path transform="translate(30.76923076923077,144.2492798094342)" d="M2.7386127875258306,0A2.7386127875258306,2.7386127875258306,0,1,1,-2.7386127875258306,0A2.7386127875258306,2.7386127875258306,0,1,1,2.7386127875258306,0" style="fill: none; stroke: red; stroke-width: 2; opacity: 0.7;"></path><path transform="translate(23.076923076923077,170.7743928643524)" d="M2.7386127875258306,0A2.7386127875258306,2.7386127875258306,0,1,1,-2.7386127875258306,0A2.7386127875258306,2.7386127875258306,0,1,1,2.7386127875258306,0" style="fill: none; stroke: red; stroke-width: 2; opacity: 0.7;"></path><path transform="translate(15.384615384615385,159.17600346881505)" d="M2.7386127875258306,0A2.7386127875258306,2.7386127875258306,0,1,1,-2.7386127875258306,0A2.7386127875258306,2.7386127875258306,0,1,1,2.7386127875258306,0" style="fill: none; stroke: red; stroke-width: 2; opacity: 0.7;"></path><path transform="translate(15.384615384615385,170.7743928643524)" d="M2.7386127875258306,0A2.7386127875258306,2.7386127875258306,0,1,1,-2.7386127875258306,0A2.7386127875258306,2.7386127875258306,0,1,1,2.7386127875258306,0" style="fill: none; stroke: red; stroke-width: 2; opacity: 0.7;"></path><path transform="translate(15.384615384615385,164.78174818886376)" d="M2.7386127875258306,0A2.7386127875258306,2.7386127875258306,0,1,1,-2.7386127875258306,0A2.7386127875258306,2.7386127875258306,0,1,1,2.7386127875258306,0" style="fill: none; stroke: red; stroke-width: 2; opacity: 0.7;"></path><path transform="translate(15.384615384615385,170.7743928643524)" d="M2.7386127875258306,0A2.7386127875258306,2.7386127875258306,0,1,1,-2.7386127875258306,0A2.7386127875258306,2.7386127875258306,0,1,1,2.7386127875258306,0" style="fill: none; stroke: red; stroke-width: 2; opacity: 0.7;"></path><path transform="translate(107.6923076923077,65.58042841285652)" d="M2.7386127875258306,0A2.7386127875258306,2.7386127875258306,0,1,1,-2.7386127875258306,0A2.7386127875258306,2.7386127875258306,0,1,1,2.7386127875258306,0" style="fill: none; stroke: red; stroke-width: 2; opacity: 0.7;"></path><path transform="translate(115.38461538461537,69.35749724493127)" d="M2.7386127875258306,0A2.7386127875258306,2.7386127875258306,0,1,1,-2.7386127875258306,0A2.7386127875258306,2.7386127875258306,0,1,1,2.7386127875258306,0" style="fill: none; stroke: red; stroke-width: 2; opacity: 0.7;"></path><path transform="translate(115.38461538461537,61.96078399429729)" d="M2.7386127875258306,0A2.7386127875258306,2.7386127875258306,0,1,1,-2.7386127875258306,0A2.7386127875258306,2.7386127875258306,0,1,1,2.7386127875258306,0" style="fill: none; stroke: red; stroke-width: 2; opacity: 0.7;"></path><path transform="translate(100,79.58800173440754)" d="M2.7386127875258306,0A2.7386127875258306,2.7386127875258306,0,1,1,-2.7386127875258306,0A2.7386127875258306,2.7386127875258306,0,1,1,2.7386127875258306,0" style="fill: none; stroke: red; stroke-width: 2; opacity: 0.7;"></path><path transform="translate(115.38461538461537,67.4484336636852)" d="M2.7386127875258306,0A2.7386127875258306,2.7386127875258306,0,1,1,-2.7386127875258306,0A2.7386127875258306,2.7386127875258306,0,1,1,2.7386127875258306,0" style="fill: none; stroke: red; stroke-width: 2; opacity: 0.7;"></path><path transform="translate(100,69.35749724493127)" d="M2.7386127875258306,0A2.7386127875258306,2.7386127875258306,0,1,1,-2.7386127875258306,0A2.7386127875258306,2.7386127875258306,0,1,1,2.7386127875258306,0" style="fill: none; stroke: red; stroke-width: 2; opacity: 0.7;"></path><path transform="translate(123.07692307692308,65.58042841285652)" d="M2.7386127875258306,0A2.7386127875258306,2.7386127875258306,0,1,1,-2.7386127875258306,0A2.7386127875258306,2.7386127875258306,0,1,1,2.7386127875258306,0" style="fill: none; stroke: red; stroke-width: 2; opacity: 0.7;"></path><path transform="translate(76.92307692307692,96.29721202442252)" d="M2.7386127875258306,0A2.7386127875258306,2.7386127875258306,0,1,1,-2.7386127875258306,0A2.7386127875258306,2.7386127875258306,0,1,1,2.7386127875258306,0" style="fill: none; stroke: red; stroke-width: 2; opacity: 0.7;"></path><path transform="translate(100,67.4484336636852)" d="M2.7386127875258306,0A2.7386127875258306,2.7386127875258306,0,1,1,-2.7386127875258306,0A2.7386127875258306,2.7386127875258306,0,1,1,2.7386127875258306,0" style="fill: none; stroke: red; stroke-width: 2; opacity: 0.7;"></path><path transform="translate(107.6923076923077,81.78707859470018)" d="M2.7386127875258306,0A2.7386127875258306,2.7386127875258306,0,1,1,-2.7386127875258306,0A2.7386127875258306,2.7386127875258306,0,1,1,2.7386127875258306,0" style="fill: none; stroke: red; stroke-width: 2; opacity: 0.7;"></path><path transform="translate(76.92307692307692,91.1863911299449)" d="M2.7386127875258306,0A2.7386127875258306,2.7386127875258306,0,1,1,-2.7386127875258306,0A2.7386127875258306,2.7386127875258306,0,1,1,2.7386127875258306,0" style="fill: none; stroke: red; stroke-width: 2; opacity: 0.7;"></path><path transform="translate(115.38461538461537,75.35014192041992)" d="M2.7386127875258306,0A2.7386127875258306,2.7386127875258306,0,1,1,-2.7386127875258306,0A2.7386127875258306,2.7386127875258306,0,1,1,2.7386127875258306,0" style="fill: none; stroke: red; stroke-width: 2; opacity: 0.7;"></path><path transform="translate(76.92307692307692,79.58800173440754)" d="M2.7386127875258306,0A2.7386127875258306,2.7386127875258306,0,1,1,-2.7386127875258306,0A2.7386127875258306,2.7386127875258306,0,1,1,2.7386127875258306,0" style="fill: none; stroke: red; stroke-width: 2; opacity: 0.7;"></path><path transform="translate(107.6923076923077,65.58042841285652)" d="M2.7386127875258306,0A2.7386127875258306,2.7386127875258306,0,1,1,-2.7386127875258306,0A2.7386127875258306,2.7386127875258306,0,1,1,2.7386127875258306,0" style="fill: none; stroke: red; stroke-width: 2; opacity: 0.7;"></path><path transform="translate(100,88.73949984654254)" d="M2.7386127875258306,0A2.7386127875258306,2.7386127875258306,0,1,1,-2.7386127875258306,0A2.7386127875258306,2.7386127875258306,0,1,1,2.7386127875258306,0" style="fill: none; stroke: red; stroke-width: 2; opacity: 0.7;"></path><path transform="translate(107.6923076923077,71.30946470276251)" d="M2.7386127875258306,0A2.7386127875258306,2.7386127875258306,0,1,1,-2.7386127875258306,0A2.7386127875258306,2.7386127875258306,0,1,1,2.7386127875258306,0" style="fill: none; stroke: red; stroke-width: 2; opacity: 0.7;"></path><path transform="translate(115.38461538461537,69.35749724493127)" d="M2.7386127875258306,0A2.7386127875258306,2.7386127875258306,0,1,1,-2.7386127875258306,0A2.7386127875258306,2.7386127875258306,0,1,1,2.7386127875258306,0" style="fill: none; stroke: red; stroke-width: 2; opacity: 0.7;"></path><path transform="translate(76.92307692307692,77.44322865605291)" d="M2.7386127875258306,0A2.7386127875258306,2.7386127875258306,0,1,1,-2.7386127875258306,0A2.7386127875258306,2.7386127875258306,0,1,1,2.7386127875258306,0" style="fill: none; stroke: red; stroke-width: 2; opacity: 0.7;"></path><path transform="translate(115.38461538461537,69.35749724493127)" d="M2.7386127875258306,0A2.7386127875258306,2.7386127875258306,0,1,1,-2.7386127875258306,0A2.7386127875258306,2.7386127875258306,0,1,1,2.7386127875258306,0" style="fill: none; stroke: red; stroke-width: 2; opacity: 0.7;"></path><path transform="translate(84.61538461538461,81.78707859470018)" d="M2.7386127875258306,0A2.7386127875258306,2.7386127875258306,0,1,1,-2.7386127875258306,0A2.7386127875258306,2.7386127875258306,0,1,1,2.7386127875258306,0" style="fill: none; stroke: red; stroke-width: 2; opacity: 0.7;"></path><path transform="translate(138.46153846153845,63.75175252488256)" d="M2.7386127875258306,0A2.7386127875258306,2.7386127875258306,0,1,1,-2.7386127875258306,0A2.7386127875258306,2.7386127875258306,0,1,1,2.7386127875258306,0" style="fill: none; stroke: red; stroke-width: 2; opacity: 0.7;"></path><path transform="translate(100,79.58800173440754)" d="M2.7386127875258306,0A2.7386127875258306,2.7386127875258306,0,1,1,-2.7386127875258306,0A2.7386127875258306,2.7386127875258306,0,1,1,2.7386127875258306,0" style="fill: none; stroke: red; stroke-width: 2; opacity: 0.7;"></path><path transform="translate(115.38461538461537,61.96078399429729)" d="M2.7386127875258306,0A2.7386127875258306,2.7386127875258306,0,1,1,-2.7386127875258306,0A2.7386127875258306,2.7386127875258306,0,1,1,2.7386127875258306,0" style="fill: none; stroke: red; stroke-width: 2; opacity: 0.7;"></path><path transform="translate(92.3076923076923,65.58042841285652)" d="M2.7386127875258306,0A2.7386127875258306,2.7386127875258306,0,1,1,-2.7386127875258306,0A2.7386127875258306,2.7386127875258306,0,1,1,2.7386127875258306,0" style="fill: none; stroke: red; stroke-width: 2; opacity: 0.7;"></path><path transform="translate(100,73.30630888408271)" d="M2.7386127875258306,0A2.7386127875258306,2.7386127875258306,0,1,1,-2.7386127875258306,0A2.7386127875258306,2.7386127875258306,0,1,1,2.7386127875258306,0" style="fill: none; stroke: red; stroke-width: 2; opacity: 0.7;"></path><path transform="translate(107.6923076923077,71.30946470276251)" d="M2.7386127875258306,0A2.7386127875258306,2.7386127875258306,0,1,1,-2.7386127875258306,0A2.7386127875258306,2.7386127875258306,0,1,1,2.7386127875258306,0" style="fill: none; stroke: red; stroke-width: 2; opacity: 0.7;"></path><path transform="translate(107.6923076923077,63.75175252488256)" d="M2.7386127875258306,0A2.7386127875258306,2.7386127875258306,0,1,1,-2.7386127875258306,0A2.7386127875258306,2.7386127875258306,0,1,1,2.7386127875258306,0" style="fill: none; stroke: red; stroke-width: 2; opacity: 0.7;"></path><path transform="translate(130.76923076923077,60.20599913279625)" d="M2.7386127875258306,0A2.7386127875258306,2.7386127875258306,0,1,1,-2.7386127875258306,0A2.7386127875258306,2.7386127875258306,0,1,1,2.7386127875258306,0" style="fill: none; stroke: red; stroke-width: 2; opacity: 0.7;"></path><path transform="translate(115.38461538461537,69.35749724493127)" d="M2.7386127875258306,0A2.7386127875258306,2.7386127875258306,0,1,1,-2.7386127875258306,0A2.7386127875258306,2.7386127875258306,0,1,1,2.7386127875258306,0" style="fill: none; stroke: red; stroke-width: 2; opacity: 0.7;"></path><path transform="translate(76.92307692307692,91.1863911299449)" d="M2.7386127875258306,0A2.7386127875258306,2.7386127875258306,0,1,1,-2.7386127875258306,0A2.7386127875258306,2.7386127875258306,0,1,1,2.7386127875258306,0" style="fill: none; stroke: red; stroke-width: 2; opacity: 0.7;"></path><path transform="translate(84.61538461538461,84.043280676638)" d="M2.7386127875258306,0A2.7386127875258306,2.7386127875258306,0,1,1,-2.7386127875258306,0A2.7386127875258306,2.7386127875258306,0,1,1,2.7386127875258306,0" style="fill: none; stroke: red; stroke-width: 2; opacity: 0.7;"></path><path transform="translate(76.92307692307692,86.359655186601)" d="M2.7386127875258306,0A2.7386127875258306,2.7386127875258306,0,1,1,-2.7386127875258306,0A2.7386127875258306,2.7386127875258306,0,1,1,2.7386127875258306,0" style="fill: none; stroke: red; stroke-width: 2; opacity: 0.7;"></path><path transform="translate(92.3076923076923,81.78707859470018)" d="M2.7386127875258306,0A2.7386127875258306,2.7386127875258306,0,1,1,-2.7386127875258306,0A2.7386127875258306,2.7386127875258306,0,1,1,2.7386127875258306,0" style="fill: none; stroke: red; stroke-width: 2; opacity: 0.7;"></path><path transform="translate(123.07692307692308,58.48596478041276)" d="M2.7386127875258306,0A2.7386127875258306,2.7386127875258306,0,1,1,-2.7386127875258306,0A2.7386127875258306,2.7386127875258306,0,1,1,2.7386127875258306,0" style="fill: none; stroke: red; stroke-width: 2; opacity: 0.7;"></path><path transform="translate(115.38461538461537,69.35749724493127)" d="M2.7386127875258306,0A2.7386127875258306,2.7386127875258306,0,1,1,-2.7386127875258306,0A2.7386127875258306,2.7386127875258306,0,1,1,2.7386127875258306,0" style="fill: none; stroke: red; stroke-width: 2; opacity: 0.7;"></path><path transform="translate(123.07692307692308,69.35749724493127)" d="M2.7386127875258306,0A2.7386127875258306,2.7386127875258306,0,1,1,-2.7386127875258306,0A2.7386127875258306,2.7386127875258306,0,1,1,2.7386127875258306,0" style="fill: none; stroke: red; stroke-width: 2; opacity: 0.7;"></path><path transform="translate(115.38461538461537,65.58042841285652)" d="M2.7386127875258306,0A2.7386127875258306,2.7386127875258306,0,1,1,-2.7386127875258306,0A2.7386127875258306,2.7386127875258306,0,1,1,2.7386127875258306,0" style="fill: none; stroke: red; stroke-width: 2; opacity: 0.7;"></path><path transform="translate(100,71.30946470276251)" d="M2.7386127875258306,0A2.7386127875258306,2.7386127875258306,0,1,1,-2.7386127875258306,0A2.7386127875258306,2.7386127875258306,0,1,1,2.7386127875258306,0" style="fill: none; stroke: red; stroke-width: 2; opacity: 0.7;"></path><path transform="translate(100,77.44322865605291)" d="M2.7386127875258306,0A2.7386127875258306,2.7386127875258306,0,1,1,-2.7386127875258306,0A2.7386127875258306,2.7386127875258306,0,1,1,2.7386127875258306,0" style="fill: none; stroke: red; stroke-width: 2; opacity: 0.7;"></path><path transform="translate(100,79.58800173440754)" d="M2.7386127875258306,0A2.7386127875258306,2.7386127875258306,0,1,1,-2.7386127875258306,0A2.7386127875258306,2.7386127875258306,0,1,1,2.7386127875258306,0" style="fill: none; stroke: red; stroke-width: 2; opacity: 0.7;"></path><path transform="translate(92.3076923076923,71.30946470276251)" d="M2.7386127875258306,0A2.7386127875258306,2.7386127875258306,0,1,1,-2.7386127875258306,0A2.7386127875258306,2.7386127875258306,0,1,1,2.7386127875258306,0" style="fill: none; stroke: red; stroke-width: 2; opacity: 0.7;"></path><path transform="translate(107.6923076923077,67.4484336636852)" d="M2.7386127875258306,0A2.7386127875258306,2.7386127875258306,0,1,1,-2.7386127875258306,0A2.7386127875258306,2.7386127875258306,0,1,1,2.7386127875258306,0" style="fill: none; stroke: red; stroke-width: 2; opacity: 0.7;"></path><path transform="translate(92.3076923076923,79.58800173440754)" d="M2.7386127875258306,0A2.7386127875258306,2.7386127875258306,0,1,1,-2.7386127875258306,0A2.7386127875258306,2.7386127875258306,0,1,1,2.7386127875258306,0" style="fill: none; stroke: red; stroke-width: 2; opacity: 0.7;"></path><path transform="translate(76.92307692307692,96.29721202442252)" d="M2.7386127875258306,0A2.7386127875258306,2.7386127875258306,0,1,1,-2.7386127875258306,0A2.7386127875258306,2.7386127875258306,0,1,1,2.7386127875258306,0" style="fill: none; stroke: red; stroke-width: 2; opacity: 0.7;"></path><path transform="translate(100,75.35014192041992)" d="M2.7386127875258306,0A2.7386127875258306,2.7386127875258306,0,1,1,-2.7386127875258306,0A2.7386127875258306,2.7386127875258306,0,1,1,2.7386127875258306,0" style="fill: none; stroke: red; stroke-width: 2; opacity: 0.7;"></path><path transform="translate(92.3076923076923,75.35014192041992)" d="M2.7386127875258306,0A2.7386127875258306,2.7386127875258306,0,1,1,-2.7386127875258306,0A2.7386127875258306,2.7386127875258306,0,1,1,2.7386127875258306,0" style="fill: none; stroke: red; stroke-width: 2; opacity: 0.7;"></path><path transform="translate(100,75.35014192041992)" d="M2.7386127875258306,0A2.7386127875258306,2.7386127875258306,0,1,1,-2.7386127875258306,0A2.7386127875258306,2.7386127875258306,0,1,1,2.7386127875258306,0" style="fill: none; stroke: red; stroke-width: 2; opacity: 0.7;"></path><path transform="translate(100,73.30630888408271)" d="M2.7386127875258306,0A2.7386127875258306,2.7386127875258306,0,1,1,-2.7386127875258306,0A2.7386127875258306,2.7386127875258306,0,1,1,2.7386127875258306,0" style="fill: none; stroke: red; stroke-width: 2; opacity: 0.7;"></path><path transform="translate(84.61538461538461,104.57574905606754)" d="M2.7386127875258306,0A2.7386127875258306,2.7386127875258306,0,1,1,-2.7386127875258306,0A2.7386127875258306,2.7386127875258306,0,1,1,2.7386127875258306,0" style="fill: none; stroke: red; stroke-width: 2; opacity: 0.7;"></path><path transform="translate(100,77.44322865605291)" d="M2.7386127875258306,0A2.7386127875258306,2.7386127875258306,0,1,1,-2.7386127875258306,0A2.7386127875258306,2.7386127875258306,0,1,1,2.7386127875258306,0" style="fill: none; stroke: red; stroke-width: 2; opacity: 0.7;"></path><path transform="translate(192.3076923076923,44.369749923271286)" d="M2.7386127875258306,0A2.7386127875258306,2.7386127875258306,0,1,1,-2.7386127875258306,0A2.7386127875258306,2.7386127875258306,0,1,1,2.7386127875258306,0" style="fill: none; stroke: red; stroke-width: 2; opacity: 0.7;"></path><path transform="translate(146.15384615384613,58.48596478041276)" d="M2.7386127875258306,0A2.7386127875258306,2.7386127875258306,0,1,1,-2.7386127875258306,0A2.7386127875258306,2.7386127875258306,0,1,1,2.7386127875258306,0" style="fill: none; stroke: red; stroke-width: 2; opacity: 0.7;"></path><path transform="translate(161.53846153846155,45.82959767157118)" d="M2.7386127875258306,0A2.7386127875258306,2.7386127875258306,0,1,1,-2.7386127875258306,0A2.7386127875258306,2.7386127875258306,0,1,1,2.7386127875258306,0" style="fill: none; stroke: red; stroke-width: 2; opacity: 0.7;"></path><path transform="translate(138.46153846153845,50.36239459875992)" d="M2.7386127875258306,0A2.7386127875258306,2.7386127875258306,0,1,1,-2.7386127875258306,0A2.7386127875258306,2.7386127875258306,0,1,1,2.7386127875258306,0" style="fill: none; stroke: red; stroke-width: 2; opacity: 0.7;"></path><path transform="translate(169.23076923076923,47.31440128741255)" d="M2.7386127875258306,0A2.7386127875258306,2.7386127875258306,0,1,1,-2.7386127875258306,0A2.7386127875258306,2.7386127875258306,0,1,1,2.7386127875258306,0" style="fill: none; stroke: red; stroke-width: 2; opacity: 0.7;"></path><path transform="translate(161.53846153846155,36.0912128916263)" d="M2.7386127875258306,0A2.7386127875258306,2.7386127875258306,0,1,1,-2.7386127875258306,0A2.7386127875258306,2.7386127875258306,0,1,1,2.7386127875258306,0" style="fill: none; stroke: red; stroke-width: 2; opacity: 0.7;"></path><path transform="translate(130.76923076923077,69.35749724493127)" d="M2.7386127875258306,0A2.7386127875258306,2.7386127875258306,0,1,1,-2.7386127875258306,0A2.7386127875258306,2.7386127875258306,0,1,1,2.7386127875258306,0" style="fill: none; stroke: red; stroke-width: 2; opacity: 0.7;"></path><path transform="translate(138.46153846153845,40.13189010928369)" d="M2.7386127875258306,0A2.7386127875258306,2.7386127875258306,0,1,1,-2.7386127875258306,0A2.7386127875258306,2.7386127875258306,0,1,1,2.7386127875258306,0" style="fill: none; stroke: red; stroke-width: 2; opacity: 0.7;"></path><path transform="translate(138.46153846153845,47.31440128741255)" d="M2.7386127875258306,0A2.7386127875258306,2.7386127875258306,0,1,1,-2.7386127875258306,0A2.7386127875258306,2.7386127875258306,0,1,1,2.7386127875258306,0" style="fill: none; stroke: red; stroke-width: 2; opacity: 0.7;"></path><path transform="translate(192.3076923076923,42.93403299784663)" d="M2.7386127875258306,0A2.7386127875258306,2.7386127875258306,0,1,1,-2.7386127875258306,0A2.7386127875258306,2.7386127875258306,0,1,1,2.7386127875258306,0" style="fill: none; stroke: red; stroke-width: 2; opacity: 0.7;"></path><path transform="translate(153.84615384615384,58.48596478041276)" d="M2.7386127875258306,0A2.7386127875258306,2.7386127875258306,0,1,1,-2.7386127875258306,0A2.7386127875258306,2.7386127875258306,0,1,1,2.7386127875258306,0" style="fill: none; stroke: red; stroke-width: 2; opacity: 0.7;"></path><path transform="translate(146.15384615384613,55.144826079842204)" d="M2.7386127875258306,0A2.7386127875258306,2.7386127875258306,0,1,1,-2.7386127875258306,0A2.7386127875258306,2.7386127875258306,0,1,1,2.7386127875258306,0" style="fill: none; stroke: red; stroke-width: 2; opacity: 0.7;"></path><path transform="translate(161.53846153846155,51.927462101151235)" d="M2.7386127875258306,0A2.7386127875258306,2.7386127875258306,0,1,1,-2.7386127875258306,0A2.7386127875258306,2.7386127875258306,0,1,1,2.7386127875258306,0" style="fill: none; stroke: red; stroke-width: 2; opacity: 0.7;"></path><path transform="translate(153.84615384615384,60.20599913279625)" d="M2.7386127875258306,0A2.7386127875258306,2.7386127875258306,0,1,1,-2.7386127875258306,0A2.7386127875258306,2.7386127875258306,0,1,1,2.7386127875258306,0" style="fill: none; stroke: red; stroke-width: 2; opacity: 0.7;"></path><path transform="translate(184.6153846153846,58.48596478041276)" d="M2.7386127875258306,0A2.7386127875258306,2.7386127875258306,0,1,1,-2.7386127875258306,0A2.7386127875258306,2.7386127875258306,0,1,1,2.7386127875258306,0" style="fill: none; stroke: red; stroke-width: 2; opacity: 0.7;"></path><path transform="translate(176.9230769230769,55.144826079842204)" d="M2.7386127875258306,0A2.7386127875258306,2.7386127875258306,0,1,1,-2.7386127875258306,0A2.7386127875258306,2.7386127875258306,0,1,1,2.7386127875258306,0" style="fill: none; stroke: red; stroke-width: 2; opacity: 0.7;"></path><path transform="translate(138.46153846153845,51.927462101151235)" d="M2.7386127875258306,0A2.7386127875258306,2.7386127875258306,0,1,1,-2.7386127875258306,0A2.7386127875258306,2.7386127875258306,0,1,1,2.7386127875258306,0" style="fill: none; stroke: red; stroke-width: 2; opacity: 0.7;"></path><path transform="translate(169.23076923076923,34.78503945983471)" d="M2.7386127875258306,0A2.7386127875258306,2.7386127875258306,0,1,1,-2.7386127875258306,0A2.7386127875258306,2.7386127875258306,0,1,1,2.7386127875258306,0" style="fill: none; stroke: red; stroke-width: 2; opacity: 0.7;"></path><path transform="translate(176.9230769230769,32.23018185254895)" d="M2.7386127875258306,0A2.7386127875258306,2.7386127875258306,0,1,1,-2.7386127875258306,0A2.7386127875258306,2.7386127875258306,0,1,1,2.7386127875258306,0" style="fill: none; stroke: red; stroke-width: 2; opacity: 0.7;"></path><path transform="translate(115.38461538461537,60.20599913279625)" d="M2.7386127875258306,0A2.7386127875258306,2.7386127875258306,0,1,1,-2.7386127875258306,0A2.7386127875258306,2.7386127875258306,0,1,1,2.7386127875258306,0" style="fill: none; stroke: red; stroke-width: 2; opacity: 0.7;"></path><path transform="translate(176.9230769230769,48.825028865501764)" d="M2.7386127875258306,0A2.7386127875258306,2.7386127875258306,0,1,1,-2.7386127875258306,0A2.7386127875258306,2.7386127875258306,0,1,1,2.7386127875258306,0" style="fill: none; stroke: red; stroke-width: 2; opacity: 0.7;"></path><path transform="translate(153.84615384615384,61.96078399429729)" d="M2.7386127875258306,0A2.7386127875258306,2.7386127875258306,0,1,1,-2.7386127875258306,0A2.7386127875258306,2.7386127875258306,0,1,1,2.7386127875258306,0" style="fill: none; stroke: red; stroke-width: 2; opacity: 0.7;"></path><path transform="translate(153.84615384615384,34.78503945983471)" d="M2.7386127875258306,0A2.7386127875258306,2.7386127875258306,0,1,1,-2.7386127875258306,0A2.7386127875258306,2.7386127875258306,0,1,1,2.7386127875258306,0" style="fill: none; stroke: red; stroke-width: 2; opacity: 0.7;"></path><path transform="translate(138.46153846153845,61.96078399429729)" d="M2.7386127875258306,0A2.7386127875258306,2.7386127875258306,0,1,1,-2.7386127875258306,0A2.7386127875258306,2.7386127875258306,0,1,1,2.7386127875258306,0" style="fill: none; stroke: red; stroke-width: 2; opacity: 0.7;"></path><path transform="translate(161.53846153846155,48.825028865501764)" d="M2.7386127875258306,0A2.7386127875258306,2.7386127875258306,0,1,1,-2.7386127875258306,0A2.7386127875258306,2.7386127875258306,0,1,1,2.7386127875258306,0" style="fill: none; stroke: red; stroke-width: 2; opacity: 0.7;"></path><path transform="translate(138.46153846153845,44.369749923271286)" d="M2.7386127875258306,0A2.7386127875258306,2.7386127875258306,0,1,1,-2.7386127875258306,0A2.7386127875258306,2.7386127875258306,0,1,1,2.7386127875258306,0" style="fill: none; stroke: red; stroke-width: 2; opacity: 0.7;"></path><path transform="translate(138.46153846153845,63.75175252488256)" d="M2.7386127875258306,0A2.7386127875258306,2.7386127875258306,0,1,1,-2.7386127875258306,0A2.7386127875258306,2.7386127875258306,0,1,1,2.7386127875258306,0" style="fill: none; stroke: red; stroke-width: 2; opacity: 0.7;"></path><path transform="translate(138.46153846153845,61.96078399429729)" d="M2.7386127875258306,0A2.7386127875258306,2.7386127875258306,0,1,1,-2.7386127875258306,0A2.7386127875258306,2.7386127875258306,0,1,1,2.7386127875258306,0" style="fill: none; stroke: red; stroke-width: 2; opacity: 0.7;"></path><path transform="translate(161.53846153846155,50.36239459875992)" d="M2.7386127875258306,0A2.7386127875258306,2.7386127875258306,0,1,1,-2.7386127875258306,0A2.7386127875258306,2.7386127875258306,0,1,1,2.7386127875258306,0" style="fill: none; stroke: red; stroke-width: 2; opacity: 0.7;"></path><path transform="translate(123.07692307692308,47.31440128741255)" d="M2.7386127875258306,0A2.7386127875258306,2.7386127875258306,0,1,1,-2.7386127875258306,0A2.7386127875258306,2.7386127875258306,0,1,1,2.7386127875258306,0" style="fill: none; stroke: red; stroke-width: 2; opacity: 0.7;"></path><path transform="translate(146.15384615384613,42.93403299784663)" d="M2.7386127875258306,0A2.7386127875258306,2.7386127875258306,0,1,1,-2.7386127875258306,0A2.7386127875258306,2.7386127875258306,0,1,1,2.7386127875258306,0" style="fill: none; stroke: red; stroke-width: 2; opacity: 0.7;"></path><path transform="translate(153.84615384615384,38.76400520322255)" d="M2.7386127875258306,0A2.7386127875258306,2.7386127875258306,0,1,1,-2.7386127875258306,0A2.7386127875258306,2.7386127875258306,0,1,1,2.7386127875258306,0" style="fill: none; stroke: red; stroke-width: 2; opacity: 0.7;"></path><path transform="translate(169.23076923076923,50.36239459875992)" d="M2.7386127875258306,0A2.7386127875258306,2.7386127875258306,0,1,1,-2.7386127875258306,0A2.7386127875258306,2.7386127875258306,0,1,1,2.7386127875258306,0" style="fill: none; stroke: red; stroke-width: 2; opacity: 0.7;"></path><path transform="translate(115.38461538461537,58.48596478041276)" d="M2.7386127875258306,0A2.7386127875258306,2.7386127875258306,0,1,1,-2.7386127875258306,0A2.7386127875258306,2.7386127875258306,0,1,1,2.7386127875258306,0" style="fill: none; stroke: red; stroke-width: 2; opacity: 0.7;"></path><path transform="translate(107.6923076923077,50.36239459875992)" d="M2.7386127875258306,0A2.7386127875258306,2.7386127875258306,0,1,1,-2.7386127875258306,0A2.7386127875258306,2.7386127875258306,0,1,1,2.7386127875258306,0" style="fill: none; stroke: red; stroke-width: 2; opacity: 0.7;"></path><path transform="translate(176.9230769230769,42.93403299784663)" d="M2.7386127875258306,0A2.7386127875258306,2.7386127875258306,0,1,1,-2.7386127875258306,0A2.7386127875258306,2.7386127875258306,0,1,1,2.7386127875258306,0" style="fill: none; stroke: red; stroke-width: 2; opacity: 0.7;"></path><path transform="translate(184.6153846153846,50.36239459875992)" d="M2.7386127875258306,0A2.7386127875258306,2.7386127875258306,0,1,1,-2.7386127875258306,0A2.7386127875258306,2.7386127875258306,0,1,1,2.7386127875258306,0" style="fill: none; stroke: red; stroke-width: 2; opacity: 0.7;"></path><path transform="translate(138.46153846153845,51.927462101151235)" d="M2.7386127875258306,0A2.7386127875258306,2.7386127875258306,0,1,1,-2.7386127875258306,0A2.7386127875258306,2.7386127875258306,0,1,1,2.7386127875258306,0" style="fill: none; stroke: red; stroke-width: 2; opacity: 0.7;"></path><path transform="translate(138.46153846153845,63.75175252488256)" d="M2.7386127875258306,0A2.7386127875258306,2.7386127875258306,0,1,1,-2.7386127875258306,0A2.7386127875258306,2.7386127875258306,0,1,1,2.7386127875258306,0" style="fill: none; stroke: red; stroke-width: 2; opacity: 0.7;"></path><path transform="translate(161.53846153846155,53.5212480354063)" d="M2.7386127875258306,0A2.7386127875258306,2.7386127875258306,0,1,1,-2.7386127875258306,0A2.7386127875258306,2.7386127875258306,0,1,1,2.7386127875258306,0" style="fill: none; stroke: red; stroke-width: 2; opacity: 0.7;"></path><path transform="translate(184.6153846153846,50.36239459875992)" d="M2.7386127875258306,0A2.7386127875258306,2.7386127875258306,0,1,1,-2.7386127875258306,0A2.7386127875258306,2.7386127875258306,0,1,1,2.7386127875258306,0" style="fill: none; stroke: red; stroke-width: 2; opacity: 0.7;"></path><path transform="translate(176.9230769230769,58.48596478041276)" d="M2.7386127875258306,0A2.7386127875258306,2.7386127875258306,0,1,1,-2.7386127875258306,0A2.7386127875258306,2.7386127875258306,0,1,1,2.7386127875258306,0" style="fill: none; stroke: red; stroke-width: 2; opacity: 0.7;"></path><path transform="translate(146.15384615384613,58.48596478041276)" d="M2.7386127875258306,0A2.7386127875258306,2.7386127875258306,0,1,1,-2.7386127875258306,0A2.7386127875258306,2.7386127875258306,0,1,1,2.7386127875258306,0" style="fill: none; stroke: red; stroke-width: 2; opacity: 0.7;"></path><path transform="translate(176.9230769230769,45.82959767157118)" d="M2.7386127875258306,0A2.7386127875258306,2.7386127875258306,0,1,1,-2.7386127875258306,0A2.7386127875258306,2.7386127875258306,0,1,1,2.7386127875258306,0" style="fill: none; stroke: red; stroke-width: 2; opacity: 0.7;"></path><path transform="translate(192.3076923076923,48.825028865501764)" d="M2.7386127875258306,0A2.7386127875258306,2.7386127875258306,0,1,1,-2.7386127875258306,0A2.7386127875258306,2.7386127875258306,0,1,1,2.7386127875258306,0" style="fill: none; stroke: red; stroke-width: 2; opacity: 0.7;"></path><path transform="translate(176.9230769230769,56.79933127304017)" d="M2.7386127875258306,0A2.7386127875258306,2.7386127875258306,0,1,1,-2.7386127875258306,0A2.7386127875258306,2.7386127875258306,0,1,1,2.7386127875258306,0" style="fill: none; stroke: red; stroke-width: 2; opacity: 0.7;"></path><path transform="translate(146.15384615384613,60.20599913279625)" d="M2.7386127875258306,0A2.7386127875258306,2.7386127875258306,0,1,1,-2.7386127875258306,0A2.7386127875258306,2.7386127875258306,0,1,1,2.7386127875258306,0" style="fill: none; stroke: red; stroke-width: 2; opacity: 0.7;"></path><path transform="translate(153.84615384615384,56.79933127304017)" d="M2.7386127875258306,0A2.7386127875258306,2.7386127875258306,0,1,1,-2.7386127875258306,0A2.7386127875258306,2.7386127875258306,0,1,1,2.7386127875258306,0" style="fill: none; stroke: red; stroke-width: 2; opacity: 0.7;"></path><path transform="translate(176.9230769230769,53.5212480354063)" d="M2.7386127875258306,0A2.7386127875258306,2.7386127875258306,0,1,1,-2.7386127875258306,0A2.7386127875258306,2.7386127875258306,0,1,1,2.7386127875258306,0" style="fill: none; stroke: red; stroke-width: 2; opacity: 0.7;"></path><path transform="translate(138.46153846153845,58.48596478041276)" d="M2.7386127875258306,0A2.7386127875258306,2.7386127875258306,0,1,1,-2.7386127875258306,0A2.7386127875258306,2.7386127875258306,0,1,1,2.7386127875258306,0" style="fill: none; stroke: red; stroke-width: 2; opacity: 0.7;"></path></g><g class="mark-text role-title" style="pointer-events: none;"><text text-anchor="middle" transform="translate(100,-8)" style="font-family: sans-serif; font-size: 13px; font-weight: bold; fill: #000; opacity: 1;">Hello World</text></g><g class="mark-group role-axis"><g transform="translate(0.5,200.5)"><path class="background" d="M0,0h0v0h0Z" style="pointer-events: none; fill: none;"></path><g><g class="mark-rule role-axis-tick" style="pointer-events: none;"><line transform="translate(0,0)" x2="0" y2="5" style="fill: none; stroke: #888; stroke-width: 1; opacity: 1;"></line><line transform="translate(38,0)" x2="0" y2="5" style="fill: none; stroke: #888; stroke-width: 1; opacity: 1;"></line><line transform="translate(77,0)" x2="0" y2="5" style="fill: none; stroke: #888; stroke-width: 1; opacity: 1;"></line><line transform="translate(115,0)" x2="0" y2="5" style="fill: none; stroke: #888; stroke-width: 1; opacity: 1;"></line><line transform="translate(154,0)" x2="0" y2="5" style="fill: none; stroke: #888; stroke-width: 1; opacity: 1;"></line><line transform="translate(192,0)" x2="0" y2="5" style="fill: none; stroke: #888; stroke-width: 1; opacity: 1;"></line></g><g class="mark-text role-axis-label" style="pointer-events: none;"><text text-anchor="start" transform="translate(0,15)" style="font-family: sans-serif; font-size: 10px; fill: #000; opacity: 1;">0.0</text><text text-anchor="middle" transform="translate(38.46153846153846,15)" style="font-family: sans-serif; font-size: 10px; fill: #000; opacity: 1;">0.5</text><text text-anchor="middle" transform="translate(76.92307692307692,15)" style="font-family: sans-serif; font-size: 10px; fill: #000; opacity: 1;">1.0</text><text text-anchor="middle" transform="translate(115.38461538461537,15)" style="font-family: sans-serif; font-size: 10px; fill: #000; opacity: 1;">1.5</text><text text-anchor="middle" transform="translate(153.84615384615384,15)" style="font-family: sans-serif; font-size: 10px; fill: #000; opacity: 1;">2.0</text><text text-anchor="middle" transform="translate(192.3076923076923,15)" style="font-family: sans-serif; font-size: 10px; fill: #000; opacity: 1;">2.5</text></g><g class="mark-rule role-axis-domain" style="pointer-events: none;"><line transform="translate(0,0)" x2="200" y2="0" style="fill: none; stroke: #888; stroke-width: 1; opacity: 1;"></line></g><g class="mark-text role-axis-title" style="pointer-events: none;"><text text-anchor="middle" transform="translate(100,30)" style="font-family: sans-serif; font-size: 11px; font-weight: bold; fill: #000; opacity: 1;">Petal.Width</text></g></g></g></g><g class="mark-group role-axis"><g transform="translate(0.5,0.5)"><path class="background" d="M0,0h0v0h0Z" style="pointer-events: none; fill: none;"></path><g><g class="mark-rule role-axis-tick" style="pointer-events: none;"><line transform="translate(0,200)" x2="-5" y2="0" style="fill: none; stroke: #888; stroke-width: 1; opacity: 1;"></line><line transform="translate(0,140)" x2="-5" y2="0" style="fill: none; stroke: #888; stroke-width: 1; opacity: 1;"></line><line transform="translate(0,105)" x2="-5" y2="0" style="fill: none; stroke: #888; stroke-width: 1; opacity: 1;"></line><line transform="translate(0,80)" x2="-5" y2="0" style="fill: none; stroke: #888; stroke-width: 1; opacity: 1;"></line><line transform="translate(0,60)" x2="-5" y2="0" style="fill: none; stroke: #888; stroke-width: 1; opacity: 1;"></line><line transform="translate(0,44)" x2="-5" y2="0" style="fill: none; stroke: #888; stroke-width: 1; opacity: 1;"></line><line transform="translate(0,31)" x2="-5" y2="0" style="fill: none; stroke: #888; stroke-width: 1; opacity: 1;"></line><line transform="translate(0,19)" x2="-5" y2="0" style="fill: none; stroke: #888; stroke-width: 1; opacity: 1;"></line><line transform="translate(0,9)" x2="-5" y2="0" style="fill: none; stroke: #888; stroke-width: 1; opacity: 1;"></line><line transform="translate(0,0)" x2="-5" y2="0" style="fill: none; stroke: #888; stroke-width: 1; opacity: 1;"></line></g><g class="mark-text role-axis-label" style="pointer-events: none;"><text text-anchor="end" transform="translate(-7,203)" style="font-family: sans-serif; font-size: 10px; fill: #000; opacity: 1;">1</text><text text-anchor="end" transform="translate(-7,142.79400086720378)" style="font-family: sans-serif; font-size: 10px; fill: #000; opacity: 1;">2</text><text text-anchor="end" transform="translate(-7,107.57574905606754)" style="font-family: sans-serif; font-size: 10px; fill: #000; opacity: 1;">3</text><text text-anchor="end" transform="translate(-7,82.58800173440754)" style="font-family: sans-serif; font-size: 10px; fill: #000; opacity: 1;">4</text><text text-anchor="end" transform="translate(-7,63.20599913279625)" style="font-family: sans-serif; font-size: 10px; fill: #000; opacity: 1;">5</text><text text-anchor="end" transform="translate(-7,47.369749923271286)" style="font-family: sans-serif; font-size: 10px; fill: #000; opacity: 1;">6</text><text text-anchor="end" transform="translate(-7,33.98039199714867)" style="font-family: sans-serif; font-size: 10px; fill: #000; opacity: 1;">7</text><text text-anchor="end" transform="translate(-7,22.382002601611305)" style="font-family: sans-serif; font-size: 10px; fill: #000; opacity: 1;">8</text><text text-anchor="end" transform="translate(-7,12.151498112135016)" style="font-family: sans-serif; font-size: 10px; fill: #000; opacity: 1;">9</text><text text-anchor="end" transform="translate(-7,3)" style="font-family: sans-serif; font-size: 10px; fill: #000; opacity: 0;">10</text></g><g class="mark-rule role-axis-domain" style="pointer-events: none;"><line transform="translate(0,200)" x2="0" y2="-200" style="fill: none; stroke: #888; stroke-width: 1; opacity: 1;"></line></g><g class="mark-text role-axis-title" style="pointer-events: none;"><text text-anchor="middle" transform="translate(-19,100) rotate(-90) translate(0,-2)" style="font-family: sans-serif; font-size: 11px; font-weight: bold; fill: #000; opacity: 1;">petal length</text></g></g></g></g></g></g></g></g></svg>
